<mxfile host="app.diagrams.net" modified="2024-05-16T23:19:39.474Z" agent="Mozilla/5.0 (Windows NT 10.0; Win64; x64) AppleWebKit/537.36 (KHTML, like Gecko) Chrome/124.0.0.0 Safari/537.36" etag="G89xG0lRBuHODJ83GB12" version="24.4.0" type="device">
  <diagram name="Page-1" id="DovScrkUxHfuZJGdiNm2">
    <mxGraphModel dx="880" dy="434" grid="1" gridSize="10" guides="1" tooltips="1" connect="1" arrows="1" fold="1" page="1" pageScale="1" pageWidth="850" pageHeight="1100" math="0" shadow="0">
      <root>
        <mxCell id="0" />
        <mxCell id="1" parent="0" />
        <mxCell id="YoXV2cZbOKPHGviDFzwF-1" value="" style="shape=cube;whiteSpace=wrap;html=1;boundedLbl=1;backgroundOutline=1;darkOpacity=0.05;darkOpacity2=0.1;" vertex="1" parent="1">
          <mxGeometry x="170" y="35" width="200" height="185" as="geometry" />
        </mxCell>
        <mxCell id="YoXV2cZbOKPHGviDFzwF-2" value="Java Backend" style="text;html=1;align=center;verticalAlign=middle;whiteSpace=wrap;rounded=0;" vertex="1" parent="1">
          <mxGeometry x="190" y="60" width="160" height="30" as="geometry" />
        </mxCell>
        <mxCell id="YoXV2cZbOKPHGviDFzwF-3" value="Wellness Controller" style="swimlane;whiteSpace=wrap;html=1;startSize=23;" vertex="1" parent="1">
          <mxGeometry x="200" y="110" width="160" height="70" as="geometry">
            <mxRectangle x="100" y="160" width="140" height="30" as="alternateBounds" />
          </mxGeometry>
        </mxCell>
        <mxCell id="YoXV2cZbOKPHGviDFzwF-4" value="" style="shape=cube;whiteSpace=wrap;html=1;boundedLbl=1;backgroundOutline=1;darkOpacity=0.05;darkOpacity2=0.1;" vertex="1" parent="1">
          <mxGeometry x="560" y="50" width="210" height="330" as="geometry" />
        </mxCell>
        <mxCell id="YoXV2cZbOKPHGviDFzwF-8" value="React Frontend" style="text;html=1;align=center;verticalAlign=middle;whiteSpace=wrap;rounded=0;" vertex="1" parent="1">
          <mxGeometry x="590" y="80" width="160" height="30" as="geometry" />
        </mxCell>
        <mxCell id="YoXV2cZbOKPHGviDFzwF-9" value="Admin Views" style="rounded=1;whiteSpace=wrap;html=1;" vertex="1" parent="1">
          <mxGeometry x="610" y="130" width="120" height="60" as="geometry" />
        </mxCell>
        <mxCell id="YoXV2cZbOKPHGviDFzwF-10" value="Specialists Views" style="rounded=1;whiteSpace=wrap;html=1;" vertex="1" parent="1">
          <mxGeometry x="610" y="210" width="120" height="60" as="geometry" />
        </mxCell>
        <mxCell id="YoXV2cZbOKPHGviDFzwF-11" value="Patients Views" style="rounded=1;whiteSpace=wrap;html=1;" vertex="1" parent="1">
          <mxGeometry x="610" y="290" width="120" height="60" as="geometry" />
        </mxCell>
        <mxCell id="YoXV2cZbOKPHGviDFzwF-12" value="" style="rounded=0;orthogonalLoop=1;jettySize=auto;html=1;endArrow=halfCircle;endFill=0;endSize=6;strokeWidth=1;sketch=0;fontSize=12;curved=1;entryX=0;entryY=0;entryDx=200;entryDy=102.5;entryPerimeter=0;" edge="1" target="YoXV2cZbOKPHGviDFzwF-1" parent="1">
          <mxGeometry relative="1" as="geometry">
            <mxPoint x="470" y="220" as="sourcePoint" />
          </mxGeometry>
        </mxCell>
        <mxCell id="YoXV2cZbOKPHGviDFzwF-15" value="" style="rounded=0;orthogonalLoop=1;jettySize=auto;html=1;endArrow=halfCircle;endFill=0;endSize=6;strokeWidth=1;sketch=0;fontSize=12;curved=1;exitX=-0.004;exitY=0.5;exitDx=0;exitDy=0;exitPerimeter=0;" edge="1" parent="1" source="YoXV2cZbOKPHGviDFzwF-4">
          <mxGeometry relative="1" as="geometry">
            <mxPoint x="559" y="215" as="sourcePoint" />
            <mxPoint x="460" y="215" as="targetPoint" />
            <Array as="points">
              <mxPoint x="460" y="215" />
            </Array>
          </mxGeometry>
        </mxCell>
        <mxCell id="YoXV2cZbOKPHGviDFzwF-17" value="API Restful" style="text;html=1;align=center;verticalAlign=middle;whiteSpace=wrap;rounded=0;" vertex="1" parent="1">
          <mxGeometry x="440" y="170" width="85" height="30" as="geometry" />
        </mxCell>
        <mxCell id="YoXV2cZbOKPHGviDFzwF-18" value="Postgress Database" style="strokeWidth=2;html=1;shape=mxgraph.flowchart.database;whiteSpace=wrap;" vertex="1" parent="1">
          <mxGeometry x="400" y="330" width="100" height="130" as="geometry" />
        </mxCell>
        <mxCell id="YoXV2cZbOKPHGviDFzwF-19" style="edgeStyle=orthogonalEdgeStyle;rounded=0;orthogonalLoop=1;jettySize=auto;html=1;entryX=0.5;entryY=0;entryDx=0;entryDy=0;entryPerimeter=0;exitX=0.5;exitY=1;exitDx=0;exitDy=0;" edge="1" parent="1" source="YoXV2cZbOKPHGviDFzwF-22" target="YoXV2cZbOKPHGviDFzwF-18">
          <mxGeometry relative="1" as="geometry">
            <mxPoint x="280" y="240" as="sourcePoint" />
          </mxGeometry>
        </mxCell>
        <mxCell id="YoXV2cZbOKPHGviDFzwF-22" value="" style="rounded=1;whiteSpace=wrap;html=1;absoluteArcSize=1;arcSize=14;strokeWidth=2;" vertex="1" parent="1">
          <mxGeometry x="330" y="200" width="30" height="40" as="geometry" />
        </mxCell>
        <mxCell id="YoXV2cZbOKPHGviDFzwF-30" style="edgeStyle=orthogonalEdgeStyle;rounded=0;orthogonalLoop=1;jettySize=auto;html=1;entryX=0.5;entryY=0;entryDx=0;entryDy=0;" edge="1" parent="1" source="YoXV2cZbOKPHGviDFzwF-23" target="YoXV2cZbOKPHGviDFzwF-28">
          <mxGeometry relative="1" as="geometry">
            <Array as="points">
              <mxPoint x="225" y="280" />
              <mxPoint x="145" y="280" />
            </Array>
          </mxGeometry>
        </mxCell>
        <mxCell id="YoXV2cZbOKPHGviDFzwF-23" value="" style="rounded=1;whiteSpace=wrap;html=1;absoluteArcSize=1;arcSize=14;strokeWidth=2;" vertex="1" parent="1">
          <mxGeometry x="210" y="200" width="30" height="40" as="geometry" />
        </mxCell>
        <mxCell id="YoXV2cZbOKPHGviDFzwF-29" style="edgeStyle=orthogonalEdgeStyle;rounded=0;orthogonalLoop=1;jettySize=auto;html=1;entryX=0.5;entryY=0;entryDx=0;entryDy=0;" edge="1" parent="1" source="YoXV2cZbOKPHGviDFzwF-25" target="YoXV2cZbOKPHGviDFzwF-27">
          <mxGeometry relative="1" as="geometry" />
        </mxCell>
        <mxCell id="YoXV2cZbOKPHGviDFzwF-25" value="" style="rounded=1;whiteSpace=wrap;html=1;absoluteArcSize=1;arcSize=14;strokeWidth=2;" vertex="1" parent="1">
          <mxGeometry x="270" y="200" width="30" height="40" as="geometry" />
        </mxCell>
        <mxCell id="YoXV2cZbOKPHGviDFzwF-27" value="Google Calendar API" style="rounded=1;whiteSpace=wrap;html=1;" vertex="1" parent="1">
          <mxGeometry x="250" y="330" width="90" height="140" as="geometry" />
        </mxCell>
        <mxCell id="YoXV2cZbOKPHGviDFzwF-28" value="WAAPI API" style="rounded=1;whiteSpace=wrap;html=1;" vertex="1" parent="1">
          <mxGeometry x="100" y="330" width="90" height="140" as="geometry" />
        </mxCell>
      </root>
    </mxGraphModel>
  </diagram>
</mxfile>
